HIERARCHY
ROOT RootJoint
{
    OFFSET   0.000000   0.000000   0.000000
    CHANNELS 6 Xposition Yposition Zposition Xrotation Yrotation Zrotation
    JOINT lHip
    {
        OFFSET   0.100000  -0.051395   0.000000
        CHANNELS 3 Xrotation Yrotation Zrotation
        JOINT lKnee
        {
            OFFSET   0.000000  -0.410000   0.000000
            CHANNELS 3 Xrotation Yrotation Zrotation
            JOINT lAnkle
            {
                OFFSET   0.000000  -0.390000   0.000000
                CHANNELS 3 Xrotation Yrotation Zrotation
                JOINT lToeJoint
                {
                    OFFSET   0.000000  -0.050000   0.130000
                    CHANNELS 3 Xrotation Yrotation Zrotation
                    End Site
                    {
                        OFFSET   0.010000   0.002000   0.060000
                    }
                }
            }
        }
    }
    JOINT rHip
    {
        OFFSET  -0.100000  -0.051395   0.000000
        CHANNELS 3 Xrotation Yrotation Zrotation
        JOINT rKnee
        {
            OFFSET   0.000000  -0.410000   0.000000
            CHANNELS 3 Xrotation Yrotation Zrotation
            JOINT rAnkle
            {
                OFFSET   0.000000  -0.390000   0.000000
                CHANNELS 3 Xrotation Yrotation Zrotation
                JOINT rToeJoint
                {
                    OFFSET   0.000000  -0.050000   0.130000
                    CHANNELS 3 Xrotation Yrotation Zrotation
                    End Site
                    {
                        OFFSET  -0.010000   0.002000   0.060000
                    }
                }
            }
        }
    }
    JOINT pelvis_lowerback
    {
        OFFSET   0.000000   0.093605   0.000000
        CHANNELS 3 Xrotation Yrotation Zrotation
        JOINT lowerback_torso
        {
            OFFSET   0.000000   0.100000   0.000000
            CHANNELS 3 Xrotation Yrotation Zrotation
            JOINT torso_head
            {
                OFFSET   0.000000   0.282350   0.000000
                CHANNELS 3 Xrotation Yrotation Zrotation
                End Site
                {
                    OFFSET   0.000000   0.192650   0.000000
                }
            }
            JOINT lTorso_Clavicle
            {
                OFFSET   0.001000   0.157500   0.000000
                CHANNELS 3 Xrotation Yrotation Zrotation
                JOINT lShoulder
                {
                    OFFSET   0.117647   0.000000   0.000000
                    CHANNELS 3 Xrotation Yrotation Zrotation
                    JOINT lElbow
                    {
                        OFFSET   0.245000   0.000000   0.000000
                        CHANNELS 3 Xrotation Yrotation Zrotation
                        JOINT lWrist
                        {
                            OFFSET   0.240000   0.000000   0.000000
                            CHANNELS 3 Xrotation Yrotation Zrotation
                            End Site
                            {
                                OFFSET   0.116353  -0.002500   0.000000
                            }
                        }
                    }
                }
            }
            JOINT rTorso_Clavicle
            {
                OFFSET  -0.001000   0.157500   0.000000
                CHANNELS 3 Xrotation Yrotation Zrotation
                JOINT rShoulder
                {
                    OFFSET  -0.117647   0.000000   0.000000
                    CHANNELS 3 Xrotation Yrotation Zrotation
                    JOINT rElbow
                    {
                        OFFSET  -0.245000   0.000000   0.000000
                        CHANNELS 3 Xrotation Yrotation Zrotation
                        JOINT rWrist
                        {
                            OFFSET  -0.240000   0.000000   0.000000
                            CHANNELS 3 Xrotation Yrotation Zrotation
                            End Site
                            {
                                OFFSET  -0.116353  -0.002500   0.000000
                            }
                        }
                    }
                }
            }
        }
    }
}
MOTION
Frames: 5
Frame Time:   0.010000
  0.000000   0.000000   0.000000   0.000000   0.000000   0.000000   0.000000   0.000000   0.000000   0.000000   0.000000   0.000000   0.000000   0.000000   0.000000   0.000000   0.000000   0.000000   0.000000   0.000000   0.000000   0.000000   0.000000   0.000000   0.000000   0.000000   0.000000   0.000000   0.000000   0.000000   0.000000   0.000000   0.000000   0.000000   0.000000   0.000000   0.000000   0.000000   0.000000   0.000000   0.000000   0.000000   0.000000   0.000000   0.000000   0.000000   0.000000   0.000000   0.000000   0.000000   0.000000   0.000000   0.000000   0.000000   0.000000   0.000000   0.000000   0.000000   0.000000   0.000000   0.000000   0.000000   0.000000
 -0.066785   0.815664   1.083532   1.456392 -40.383774   4.044633 -18.210220   9.682830   0.041299  34.235001  -0.285737   5.534321  -2.645494  -0.670195  -2.440032  -0.078133  -0.484263   0.160097 -13.031212 -11.803956  -0.545173  28.576842  -0.842511  -5.750006   1.113934  -1.108254   2.185941  -0.003678  -0.201552  -0.219298   2.322307   0.020204  -0.030244   7.112189  -0.740742   1.045884  12.413268  -0.725171  -0.640964  -0.154186  -0.933001 -15.298635  16.406665 -26.129467 -47.267288   0.934904 -30.133193   6.277157   5.403888   1.728150  -2.796024  -0.562343   0.354704  16.149437  19.462882  24.734013  44.759803  -0.886686  30.623538  -4.697324   8.743971   3.352759  -3.296508
 -0.020114   0.812428   0.969570  -1.474702 -44.104416   0.024491 -15.949115  10.107732   0.405656  34.023997  -0.103243   5.656599  -3.167383  -0.674244  -2.953904   0.044995  -0.011191   0.028658 -14.030170 -11.220314  -0.401884  27.393064  -0.982766  -5.758025  -0.199816  -0.864253   2.134708  -0.031141   0.184244   0.123810   1.976788  -0.443897   0.076629   6.337114  -0.761023   0.319538  12.708648   0.026490  -0.940208  -0.057549  -1.182100 -15.371494  15.822240 -27.067015 -47.435143   0.272857 -30.831940   6.922150   5.461062   1.202620  -2.756302  -1.195966   0.258380  17.183175  19.752725  24.786002  45.368342  -1.056997  28.867556  -3.978094   7.659303   3.232745  -2.459996
 -0.038728   0.847919   1.095958  -3.703382 -49.059732   1.389298 -17.524405   9.373877  -0.208808  32.948651   0.193030   5.632703  -1.536239  -0.809026  -1.722944   0.148483  -0.256409   0.041021 -13.092628 -11.428785  -0.695568  27.606142  -0.877003  -5.792240   0.907037  -0.602455   2.856826   0.196772  -0.007174  -0.311720   2.116145  -0.457470   0.024374   6.442887  -0.601914   0.887592  12.554984   2.199987  -2.439870  -0.160790  -0.883955 -15.709140  16.643299 -26.538528 -47.307359   0.935193 -30.061242   6.573073   5.106567   1.558320  -2.787030  -0.894500   0.478695  17.328521  20.377291  25.155155  44.793818  -1.073269  29.945187  -4.382104   8.241359   2.827571  -2.337166
 -0.056443   0.856300   0.986769  -0.997174 -44.365343   3.543748 -16.894209   9.597343   0.079121  32.560531  -0.507632   5.853363  -1.472681  -0.561843  -2.619360   0.048009  -0.250977  -0.175923 -14.152129 -11.605682  -0.432051  29.135895  -0.420143  -4.991401   1.170421  -0.369101   2.377591   0.153990   0.049854  -0.306223   1.692756   0.179030  -0.032759   6.306924  -0.904067   0.410888  12.620342   0.196376  -0.906025  -0.153136  -1.565807 -15.452516  15.798846 -26.615172 -47.256340   0.926605 -29.515409   6.605125   5.604214   1.597791  -2.911723  -0.936643   0.832488  17.205362  19.309818  25.046644  45.360917  -0.853260  29.539072  -4.788023   8.078510   3.416251  -2.602796
